<svg xmlns="http://www.w3.org/2000/svg" version="1.1" xmlnsXlink="http://www.w3.org/1999/xlink" xmlnsSvgjs="http://svgjs.dev/svgjs" width="1920" height="1080" preserveAspectRatio="none" viewBox="0 0 1920 1080"><g clip-path="url(&quot;#SvgjsClipPath1636&quot;)" fill="none"><rect width="1920" height="1080" x="0" y="0" fill="url(&quot;#SvgjsLinearGradient1637&quot;)"></rect><circle r="180" cx="-113.66" cy="111.07" stroke="#1c5ee3" stroke-opacity="0.36" stroke-width="2"></circle><circle r="180" cx="865.06" cy="746.7" stroke="#1c5ee3" stroke-opacity="0.36" stroke-width="2"></circle><circle r="289.18" cx="1290.27" cy="75.07" stroke="#1c5ee3" stroke-opacity="0.36" stroke-width="2"></circle><circle r="201.055" cx="1180.44" cy="12.13" stroke="#1c5ee3" stroke-opacity="0.36" stroke-width="2"></circle><circle r="141.905" cx="1654.46" cy="983.92" stroke="#1c5ee3" stroke-opacity="0.36" stroke-width="2"></circle><circle r="139.775" cx="305.13" cy="634.22" stroke="#1c5ee3" stroke-opacity="0.36" stroke-width="2"></circle><circle r="126.335" cx="480.35" cy="557.25" stroke="#1c5ee3" stroke-opacity="0.36" stroke-width="2"></circle><circle r="92.94" cx="103.66" cy="353.32" stroke="#1c5ee3" stroke-opacity="0.36" stroke-width="2"></circle><circle r="130.85" cx="46.33" cy="863.87" stroke="#1c5ee3" stroke-opacity="0.36" stroke-width="2"></circle><circle r="358.475" cx="19.22" cy="86.36" stroke="#1c5ee3" stroke-opacity="0.36" stroke-width="2"></circle><circle r="278.775" cx="845.92" cy="606.64" stroke="#1c5ee3" stroke-opacity="0.36" stroke-width="2"></circle><circle r="186.605" cx="1497.03" cy="667.1" stroke="#1c5ee3" stroke-opacity="0.36" stroke-width="2"></circle><circle r="216.015" cx="1654.99" cy="747.25" stroke="#1c5ee3" stroke-opacity="0.36" stroke-width="2"></circle><circle r="190.46" cx="509.55" cy="321.66" stroke="#1c5ee3" stroke-opacity="0.36" stroke-width="2"></circle><circle r="107.015" cx="830.68" cy="777.18" stroke="#1c5ee3" stroke-opacity="0.36" stroke-width="2"></circle><circle r="242.155" cx="1548.69" cy="607.34" stroke="#1c5ee3" stroke-opacity="0.36" stroke-width="2"></circle><circle r="174.98" cx="112.02" cy="568.53" stroke="#1c5ee3" stroke-opacity="0.36" stroke-width="2"></circle><circle r="321.39" cx="1642.46" cy="177.23" stroke="#1c5ee3" stroke-opacity="0.36" stroke-width="2"></circle><circle r="302.64" cx="854.56" cy="775.7" stroke="#1c5ee3" stroke-opacity="0.36" stroke-width="2"></circle><circle r="254" cx="815.04" cy="914.74" stroke="#1c5ee3" stroke-opacity="0.36" stroke-width="2"></circle><circle r="215.22" cx="266.18" cy="615.89" stroke="#1c5ee3" stroke-opacity="0.36" stroke-width="2"></circle><circle r="288.875" cx="219.07" cy="401.82" stroke="#1c5ee3" stroke-opacity="0.36" stroke-width="2"></circle><circle r="141.605" cx="427.41" cy="579.9" stroke="#1c5ee3" stroke-opacity="0.36" stroke-width="2"></circle><circle r="155.445" cx="742.54" cy="701.65" stroke="#1c5ee3" stroke-opacity="0.36" stroke-width="2"></circle><circle r="331.74" cx="1563.27" cy="173.55" stroke="#1c5ee3" stroke-opacity="0.36" stroke-width="2"></circle><circle r="323.215" cx="213.67" cy="249.54" stroke="#1c5ee3" stroke-opacity="0.36" stroke-width="2"></circle><circle r="236.63" cx="1197.68" cy="209.02" stroke="#1c5ee3" stroke-opacity="0.36" stroke-width="2"></circle><circle r="281.535" cx="979.69" cy="61.17" stroke="#1c5ee3" stroke-opacity="0.36" stroke-width="2"></circle><circle r="336.16" cx="1281.65" cy="781.91" stroke="#1c5ee3" stroke-opacity="0.36" stroke-width="2"></circle><circle r="170.98" cx="1761.81" cy="189.99" stroke="#1c5ee3" stroke-opacity="0.36" stroke-width="2"></circle><circle r="126.44" cx="59.09" cy="324.06" stroke="#1c5ee3" stroke-opacity="0.36" stroke-width="2"></circle><circle r="125.24" cx="657.96" cy="847.25" stroke="#1c5ee3" stroke-opacity="0.36" stroke-width="2"></circle><circle r="161.075" cx="812.8" cy="847.12" stroke="#1c5ee3" stroke-opacity="0.36" stroke-width="2"></circle><circle r="338.26" cx="717.44" cy="939.17" stroke="#1c5ee3" stroke-opacity="0.36" stroke-width="2"></circle><circle r="118.06" cx="913.07" cy="1037.27" stroke="#1c5ee3" stroke-opacity="0.36" stroke-width="2"></circle><circle r="160.925" cx="160.8" cy="681.93" stroke="#1c5ee3" stroke-opacity="0.36" stroke-width="2"></circle><circle r="223.815" cx="1254.15" cy="1053.4" stroke="#1c5ee3" stroke-opacity="0.36" stroke-width="2"></circle><circle r="138.775" cx="173.58" cy="352.25" stroke="#1c5ee3" stroke-opacity="0.36" stroke-width="2"></circle><circle r="102.395" cx="1025.86" cy="477.1" stroke="#1c5ee3" stroke-opacity="0.36" stroke-width="2"></circle><circle r="127.655" cx="1219.08" cy="142.37" stroke="#1c5ee3" stroke-opacity="0.36" stroke-width="2"></circle><circle r="125.59" cx="1454.35" cy="535.48" stroke="#1c5ee3" stroke-opacity="0.36" stroke-width="2"></circle><circle r="134.475" cx="362.9" cy="690.95" stroke="#1c5ee3" stroke-opacity="0.36" stroke-width="2"></circle><circle r="284.925" cx="1333.49" cy="756.77" stroke="#1c5ee3" stroke-opacity="0.36" stroke-width="2"></circle><circle r="117.13" cx="1798.03" cy="476.43" stroke="#1c5ee3" stroke-opacity="0.36" stroke-width="2"></circle><circle r="266.385" cx="1306.51" cy="141.69" stroke="#1c5ee3" stroke-opacity="0.36" stroke-width="2"></circle><circle r="195.52" cx="1830.02" cy="971.22" stroke="#1c5ee3" stroke-opacity="0.36" stroke-width="2"></circle><circle r="234.555" cx="783.14" cy="179.12" stroke="#1c5ee3" stroke-opacity="0.36" stroke-width="2"></circle><circle r="157.405" cx="279.05" cy="811.07" stroke="#1c5ee3" stroke-opacity="0.36" stroke-width="2"></circle><circle r="110.715" cx="1184.58" cy="144.87" stroke="#1c5ee3" stroke-opacity="0.36" stroke-width="2"></circle><circle r="171.245" cx="1102.74" cy="785.76" stroke="#1c5ee3" stroke-opacity="0.36" stroke-width="2"></circle><circle r="207.145" cx="709.09" cy="76.55" stroke="#1c5ee3" stroke-opacity="0.36" stroke-width="2"></circle><circle r="177.43" cx="1587.24" cy="85.99" stroke="#1c5ee3" stroke-opacity="0.36" stroke-width="2"></circle><circle r="344.475" cx="1445.54" cy="263.4" stroke="#1c5ee3" stroke-opacity="0.36" stroke-width="2"></circle><circle r="124.795" cx="723.75" cy="241.01" stroke="#1c5ee3" stroke-opacity="0.36" stroke-width="2"></circle><circle r="196.02" cx="802.83" cy="633.38" stroke="#1c5ee3" stroke-opacity="0.36" stroke-width="2"></circle><circle r="232" cx="1097.78" cy="286.88" stroke="#1c5ee3" stroke-opacity="0.36" stroke-width="2"></circle><circle r="201.78" cx="1799.95" cy="889.16" stroke="#1c5ee3" stroke-opacity="0.36" stroke-width="2"></circle><circle r="99.835" cx="460.96" cy="513.96" stroke="#1c5ee3" stroke-opacity="0.36" stroke-width="2"></circle><circle r="201.935" cx="561.7" cy="421.61" stroke="#1c5ee3" stroke-opacity="0.36" stroke-width="2"></circle><circle r="166.69" cx="564.78" cy="815.23" stroke="#1c5ee3" stroke-opacity="0.36" stroke-width="2"></circle><circle r="350.86" cx="1624.86" cy="81.1" stroke="#1c5ee3" stroke-opacity="0.36" stroke-width="2"></circle><circle r="166.705" cx="1611.76" cy="595.54" stroke="#1c5ee3" stroke-opacity="0.36" stroke-width="2"></circle><circle r="172.095" cx="1851.1" cy="739.16" stroke="#1c5ee3" stroke-opacity="0.36" stroke-width="2"></circle><circle r="190.83" cx="1640.2" cy="632.03" stroke="#1c5ee3" stroke-opacity="0.36" stroke-width="2"></circle></g><defs><clipPath id="SvgjsClipPath1636"><rect width="1920" height="1080" x="0" y="0"></rect></clipPath><linearGradient x1="50%" y1="100%" x2="50%" y2="0%" gradientUnits="userSpaceOnUse" id="SvgjsLinearGradient1637"><stop stop-color="rgba(89, 113, 137, 0.98)" offset="0"></stop><stop stop-color="rgba(181, 191, 204, 1)" offset="1"></stop></linearGradient></defs></svg>